<svg width="34" height="34" viewBox="0 0 34 34" fill="none" xmlns="http://www.w3.org/2000/svg">
<path d="M25.5 8.5H8.5C8.04913 8.5 7.61673 8.67911 7.29792 8.99792C6.97911 9.31673 6.8 9.74913 6.8 10.2C6.8 10.6509 6.97911 11.0833 7.29792 11.4021C7.61673 11.7209 8.04913 11.9 8.5 11.9H25.5C25.9509 11.9 26.3833 11.7209 26.7021 11.4021C27.0209 11.0833 27.2 10.6509 27.2 10.2C27.2 9.74913 27.0209 9.31673 26.7021 8.99792C26.3833 8.67911 25.9509 8.5 25.5 8.5ZM25.5 15.3H8.5C8.04913 15.3 7.61673 15.4791 7.29792 15.7979C6.97911 16.1167 6.8 16.5491 6.8 17C6.8 17.4509 6.97911 17.8833 7.29792 18.2021C7.61673 18.5209 8.04913 18.7 8.5 18.7H25.5C25.9509 18.7 26.3833 18.5209 26.7021 18.2021C27.0209 17.8833 27.2 17.4509 27.2 17C27.2 16.5491 27.0209 16.1167 26.7021 15.7979C26.3833 15.4791 25.9509 15.3 25.5 15.3ZM28.9 0H5.1C3.7474 0 2.45019 0.53732 1.49376 1.49376C0.53732 2.45019 0 3.7474 0 5.1V22.1C0 23.4526 0.53732 24.7498 1.49376 25.7062C2.45019 26.6627 3.7474 27.2 5.1 27.2H24.803L31.093 33.507C31.2519 33.6646 31.4402 33.7892 31.6474 33.8738C31.8545 33.9584 32.0763 34.0013 32.3 34C32.523 34.0057 32.7442 33.9592 32.946 33.864C33.2565 33.7365 33.5222 33.5199 33.7098 33.2416C33.8973 32.9632 33.9983 32.6356 34 32.3V5.1C34 3.7474 33.4627 2.45019 32.5062 1.49376C31.5498 0.53732 30.2526 0 28.9 0ZM30.6 28.203L26.707 24.293C26.5482 24.1354 26.3598 24.0108 26.1526 23.9262C25.9455 23.8416 25.7237 23.7987 25.5 23.8H5.1C4.64913 23.8 4.21673 23.6209 3.89792 23.3021C3.57911 22.9833 3.4 22.5509 3.4 22.1V5.1C3.4 4.64913 3.57911 4.21673 3.89792 3.89792C4.21673 3.57911 4.64913 3.4 5.1 3.4H28.9C29.3509 3.4 29.7833 3.57911 30.1021 3.89792C30.4209 4.21673 30.6 4.64913 30.6 5.1V28.203Z" fill="black"/>
</svg>
