<svg width="16" height="16" viewBox="0 0 16 16" fill="none" xmlns="http://www.w3.org/2000/svg">
<path d="M8.0825 10.5425L5.1725 13.4525C4.82018 13.7925 4.34964 13.9826 3.86 13.9826C3.37036 13.9826 2.89982 13.7925 2.5475 13.4525C2.3747 13.2804 2.23759 13.0759 2.14404 12.8506C2.05048 12.6254 2.00232 12.3839 2.00232 12.14C2.00232 11.8961 2.05048 11.6546 2.14404 11.4294C2.23759 11.2042 2.3747 10.9996 2.5475 10.8275L5.4575 7.91751C5.59873 7.77628 5.67807 7.58474 5.67807 7.38501C5.67807 7.18528 5.59873 6.99374 5.4575 6.85251C5.31627 6.71128 5.12473 6.63194 4.925 6.63194C4.72527 6.63194 4.53373 6.71128 4.3925 6.85251L1.4825 9.77001C0.896267 10.4081 0.579215 11.248 0.597555 12.1143C0.615896 12.9806 0.96821 13.8064 1.58092 14.4191C2.19364 15.0318 3.01937 15.3841 3.88568 15.4025C4.752 15.4208 5.5919 15.1037 6.23 14.5175L9.1475 11.6075C9.28873 11.4663 9.36807 11.2747 9.36807 11.075C9.36807 10.8753 9.28873 10.6837 9.1475 10.5425C9.00627 10.4013 8.81472 10.3219 8.615 10.3219C8.41527 10.3219 8.22373 10.4013 8.0825 10.5425ZM14.5175 1.48251C13.8866 0.855515 13.0332 0.503601 12.1437 0.503601C11.2543 0.503601 10.4009 0.855515 9.77 1.48251L6.8525 4.39251C6.78257 4.46244 6.7271 4.54546 6.68925 4.63682C6.65141 4.72819 6.63193 4.82612 6.63193 4.92501C6.63193 5.0239 6.65141 5.12183 6.68925 5.2132C6.7271 5.30456 6.78257 5.38758 6.8525 5.45751C6.92243 5.52744 7.00545 5.58291 7.09681 5.62075C7.18818 5.6586 7.28611 5.67808 7.385 5.67808C7.48389 5.67808 7.58182 5.6586 7.67319 5.62075C7.76455 5.58291 7.84757 5.52744 7.9175 5.45751L10.8275 2.54751C11.1798 2.20748 11.6504 2.01745 12.14 2.01745C12.6296 2.01745 13.1002 2.20748 13.4525 2.54751C13.6253 2.71962 13.7624 2.92417 13.856 3.1494C13.9495 3.37463 13.9977 3.61612 13.9977 3.86001C13.9977 4.1039 13.9495 4.34539 13.856 4.57062C13.7624 4.79585 13.6253 5.00039 13.4525 5.17251L10.5425 8.08251C10.4722 8.15223 10.4164 8.23518 10.3783 8.32658C10.3403 8.41797 10.3207 8.516 10.3207 8.61501C10.3207 8.71402 10.3403 8.81205 10.3783 8.90344C10.4164 8.99484 10.4722 9.07779 10.5425 9.14751C10.6122 9.21781 10.6952 9.2736 10.7866 9.31168C10.878 9.34976 10.976 9.36936 11.075 9.36936C11.174 9.36936 11.272 9.34976 11.3634 9.31168C11.4548 9.2736 11.5378 9.21781 11.6075 9.14751L14.5175 6.23001C15.1445 5.5991 15.4964 4.74574 15.4964 3.85626C15.4964 2.96678 15.1445 2.11342 14.5175 1.48251ZM5.6225 10.3775C5.69258 10.447 5.77569 10.502 5.86707 10.5393C5.95845 10.5767 6.05629 10.5956 6.155 10.595C6.2537 10.5956 6.35155 10.5767 6.44293 10.5393C6.53431 10.502 6.61742 10.447 6.6875 10.3775L10.3775 6.68751C10.5187 6.54628 10.5981 6.35474 10.5981 6.15501C10.5981 5.95528 10.5187 5.76374 10.3775 5.62251C10.2363 5.48128 10.0447 5.40194 9.845 5.40194C9.64527 5.40194 9.45373 5.48128 9.3125 5.62251L5.6225 9.31251C5.5522 9.38223 5.49641 9.46518 5.45833 9.55658C5.42025 9.64797 5.40065 9.746 5.40065 9.84501C5.40065 9.94402 5.42025 10.042 5.45833 10.1334C5.49641 10.2248 5.5522 10.3078 5.6225 10.3775Z" fill="white"/>
</svg>
