<svg width="14" height="16" viewBox="0 0 14 16" fill="none" xmlns="http://www.w3.org/2000/svg">
<path d="M5.5 5H10C10.1989 5 10.3897 4.92098 10.5303 4.78033C10.671 4.63968 10.75 4.44891 10.75 4.25C10.75 4.05109 10.671 3.86032 10.5303 3.71967C10.3897 3.57902 10.1989 3.5 10 3.5H5.5C5.30109 3.5 5.11032 3.57902 4.96967 3.71967C4.82902 3.86032 4.75 4.05109 4.75 4.25C4.75 4.44891 4.82902 4.63968 4.96967 4.78033C5.11032 4.92098 5.30109 5 5.5 5ZM4 8H10C10.1989 8 10.3897 7.92098 10.5303 7.78033C10.671 7.63968 10.75 7.44891 10.75 7.25C10.75 7.05109 10.671 6.86032 10.5303 6.71967C10.3897 6.57902 10.1989 6.5 10 6.5H4C3.80109 6.5 3.61032 6.57902 3.46967 6.71967C3.32902 6.86032 3.25 7.05109 3.25 7.25C3.25 7.44891 3.32902 7.63968 3.46967 7.78033C3.61032 7.92098 3.80109 8 4 8ZM4 11H10C10.1989 11 10.3897 10.921 10.5303 10.7803C10.671 10.6397 10.75 10.4489 10.75 10.25C10.75 10.0511 10.671 9.86032 10.5303 9.71967C10.3897 9.57902 10.1989 9.5 10 9.5H4C3.80109 9.5 3.61032 9.57902 3.46967 9.71967C3.32902 9.86032 3.25 10.0511 3.25 10.25C3.25 10.4489 3.32902 10.6397 3.46967 10.7803C3.61032 10.921 3.80109 11 4 11ZM13 0.5H1C0.801088 0.5 0.610322 0.579018 0.46967 0.71967C0.329018 0.860322 0.25 1.05109 0.25 1.25V14.75C0.25 14.8893 0.288786 15.0258 0.362012 15.1443C0.435238 15.2628 0.54001 15.3585 0.66459 15.4208C0.789169 15.4831 0.928633 15.5095 1.06735 15.497C1.20608 15.4845 1.33857 15.4336 1.45 15.35L3.0025 14.1875L4.5475 15.35C4.67732 15.4474 4.83522 15.5 4.9975 15.5C5.15978 15.5 5.31768 15.4474 5.4475 15.35L7 14.1875L8.5525 15.35C8.68232 15.4474 8.84022 15.5 9.0025 15.5C9.16478 15.5 9.32268 15.4474 9.4525 15.35L10.9975 14.1875L12.55 15.35C12.662 15.4334 12.795 15.484 12.9341 15.4959C13.0733 15.5078 13.213 15.4807 13.3375 15.4175C13.4612 15.3552 13.5652 15.2598 13.638 15.142C13.7108 15.0242 13.7496 14.8885 13.75 14.75V1.25C13.75 1.05109 13.671 0.860322 13.5303 0.71967C13.3897 0.579018 13.1989 0.5 13 0.5ZM12.25 13.25L11.4475 12.65C11.3177 12.5526 11.1598 12.5 10.9975 12.5C10.8352 12.5 10.6773 12.5526 10.5475 12.65L9.0025 13.8125L7.45 12.65C7.32018 12.5526 7.16228 12.5 7 12.5C6.83772 12.5 6.67982 12.5526 6.55 12.65L4.9975 13.8125L3.4525 12.65C3.32268 12.5526 3.16478 12.5 3.0025 12.5C2.84022 12.5 2.68232 12.5526 2.5525 12.65L1.75 13.25V2H12.25V13.25Z" fill="white"/>
</svg>
