<svg width="50" height="50" viewBox="0 0 50 50" fill="none" xmlns="http://www.w3.org/2000/svg">
<circle cx="25" cy="25" r="25" transform="rotate(-180 25 25)" fill="white"/>
<path d="M30.5325 23.2463L21.6494 14.4701C21.026 13.8433 20.0909 13.8433 19.4675 14.4701C18.8442 15.097 18.8442 16.0373 19.4675 16.6642L27.1039 24.5L19.4675 32.3358C18.8442 32.9627 18.8442 33.903 19.4675 34.5299C19.7792 34.8433 20.0909 35 20.5584 35C21.026 35 21.3377 34.8433 21.6494 34.5299L30.5325 25.7537C31.1558 24.9702 31.1558 24.0299 30.5325 23.2463C30.5325 23.403 30.5325 23.403 30.5325 23.2463Z" fill="black"/>
</svg>
